<svg version="1.1" id="Layer_1" xmlns="http://www.w3.org/2000/svg" xmlns:xlink="http://www.w3.org/1999/xlink" x="0px" y="0px"
	 width="100%" viewBox="0 0 500 500" enable-background="new 0 0 500 500" xml:space="preserve">
<path fill="#292929" opacity="1.000000" stroke="none" 
	d="
M328.000000,501.000000 
	C218.666687,501.000000 109.833382,501.000000 1.000058,501.000000 
	C1.000039,334.333405 1.000039,167.666794 1.000019,1.000148 
	C167.666565,1.000099 334.333130,1.000099 500.999756,1.000049 
	C500.999847,167.666519 500.999847,334.333038 500.999939,500.999786 
	C443.500000,501.000000 386.000000,501.000000 328.000000,501.000000 
M118.500290,106.485222 
	C95.179810,106.485222 71.859337,106.485222 48.538857,106.485222 
	C48.358913,106.952957 48.178967,107.420692 47.999020,107.888435 
	C53.394756,111.860817 53.668625,117.586212 53.692688,123.274498 
	C53.797024,147.940277 53.924118,172.607376 53.759899,197.272095 
	C53.702892,205.833725 55.893417,215.005615 47.430851,222.801758 
	C50.505909,222.947922 52.238079,223.101013 53.970337,223.102005 
	C80.803177,223.117172 107.642700,223.472626 134.466324,222.975067 
	C150.084381,222.685333 165.772705,221.768738 181.256516,219.784744 
	C200.187408,217.359085 218.190186,211.577805 234.581436,201.229691 
	C264.281250,182.479660 260.306824,147.031219 236.139465,129.988617 
	C224.083389,121.486771 210.633102,116.459435 196.482849,112.983940 
	C171.168182,106.766312 145.352829,106.383293 118.500290,106.485222 
M258.730194,167.819946 
	C259.629730,171.352036 260.124023,175.050903 261.497559,178.387909 
	C268.172150,194.603775 281.124847,204.592712 296.326965,211.826050 
	C324.811493,225.379318 354.790649,227.843155 385.547058,222.350479 
	C404.996063,218.877167 423.002625,211.878906 438.196503,198.777039 
	C461.010956,179.103745 462.326172,151.781967 440.682678,130.910919 
	C434.095642,124.558952 426.063110,119.185249 417.812408,115.173859 
	C389.440125,101.379562 359.388458,99.107491 328.643036,104.658958 
	C309.544098,108.107513 291.751007,114.900772 276.879944,127.819237 
	C265.055054,138.091476 257.441895,150.528595 258.730194,167.819946 
M344.569641,352.100250 
	C345.733582,352.156403 346.910522,352.121002 348.059387,352.283569 
	C355.359863,353.316620 355.307007,353.331787 355.200531,346.115143 
	C355.035858,334.955353 354.823639,323.793976 354.864655,312.634094 
	C354.903839,301.974915 355.271271,291.317230 355.425446,280.657928 
	C355.463684,278.014832 355.887390,275.188263 351.455536,275.557129 
	C344.415649,276.143097 337.336334,276.533997 330.274109,276.527557 
	C286.294708,276.487518 242.315384,276.309540 198.336014,276.187286 
	C185.386292,276.151276 185.386246,276.166077 184.704834,289.278839 
	C184.287659,297.306732 185.114365,298.233337 193.284698,298.167572 
	C208.277023,298.046906 223.270767,297.932983 238.259155,297.601074 
	C242.574844,297.505524 244.400787,299.384186 244.507690,303.420258 
	C244.551743,305.083374 244.495834,306.749908 244.459381,308.414307 
	C244.003372,329.231995 243.505386,350.048859 243.105682,370.867584 
	C242.985199,377.143097 244.709061,378.909607 251.012115,379.051147 
	C255.837173,379.159515 260.674652,378.795166 265.496216,378.954834 
	C270.072388,379.106354 271.372650,377.212311 271.293762,372.694977 
	C270.904114,350.376526 270.822052,328.052429 270.686096,305.729980 
	C270.645721,299.097992 272.037659,297.468719 278.321564,297.432739 
	C296.761627,297.327118 315.202728,297.395111 334.064148,297.395111 
	C334.064148,313.298431 334.344696,328.236572 333.968658,343.158112 
	C333.703796,353.669556 333.305481,353.659515 344.569641,352.100250 
M172.431107,276.417969 
	C167.818069,275.956970 163.203140,275.514191 158.592499,275.030365 
	C152.635254,274.405212 151.353760,275.577698 151.793167,281.467896 
	C152.150879,286.263184 152.902512,291.049927 152.939529,295.844635 
	C153.085983,314.801178 153.118576,333.760101 152.983612,352.716644 
	C152.930420,360.187683 152.144012,367.654297 152.121796,375.124207 
	C152.117050,376.718475 153.897873,379.634399 154.994827,379.702362 
	C162.242172,380.151489 169.527786,380.047272 176.800079,379.997803 
	C179.791336,379.977448 180.698456,378.029633 180.610718,375.299225 
	C180.290527,365.336517 179.707367,355.369446 179.795227,345.409058 
	C179.979797,324.480438 180.468323,303.553619 180.959488,282.629089 
	C181.110413,276.199402 180.236511,275.304047 172.431107,276.417969 
M341.396729,363.774139 
	C334.949799,365.983002 331.822662,369.225922 332.191895,373.319733 
	C332.579956,377.622162 337.035065,381.453552 342.412842,381.947357 
	C347.623444,382.425842 352.796997,381.759308 355.376526,376.709290 
	C356.505280,374.499542 356.421814,370.650787 355.214813,368.474884 
	C352.494629,363.571045 347.443176,362.802612 341.396729,363.774139 
z"/>
<path fill="#FCBB58" opacity="1.000000" stroke="none" 
	d="
M119.000282,106.485260 
	C145.352829,106.383293 171.168182,106.766312 196.482849,112.983940 
	C210.633102,116.459435 224.083389,121.486771 236.139465,129.988617 
	C260.306824,147.031219 264.281250,182.479660 234.581436,201.229691 
	C218.190186,211.577805 200.187408,217.359085 181.256516,219.784744 
	C165.772705,221.768738 150.084381,222.685333 134.466324,222.975067 
	C107.642700,223.472626 80.803177,223.117172 53.970337,223.102005 
	C52.238079,223.101013 50.505909,222.947922 47.430851,222.801758 
	C55.893417,215.005615 53.702892,205.833725 53.759899,197.272095 
	C53.924118,172.607376 53.797024,147.940277 53.692688,123.274498 
	C53.668625,117.586212 53.394756,111.860817 47.999020,107.888435 
	C48.178967,107.420692 48.358913,106.952957 48.538857,106.485222 
	C71.859337,106.485222 95.179810,106.485222 119.000282,106.485260 
M119.500763,203.075775 
	C143.144882,203.303329 166.812927,203.867157 190.159500,199.015305 
	C202.596756,196.430603 214.841980,193.217377 224.954712,184.953278 
	C236.530457,175.493576 237.374390,159.861084 226.631927,149.485580 
	C223.101135,146.075424 218.800339,143.257965 214.438568,140.950180 
	C199.960388,133.289917 184.179245,129.091125 168.063965,128.267395 
	C138.658936,126.764366 109.179131,126.681267 79.727684,126.168411 
	C74.363037,126.074989 72.834343,128.004745 72.824707,133.622818 
	C72.790138,153.775284 72.790573,173.927872 72.823006,194.080353 
	C72.832771,200.151428 74.191231,201.561279 80.554512,201.808807 
	C93.200722,202.300751 105.852280,202.655258 119.500763,203.075775 
z"/>
<path fill="#FCBB58" opacity="1.000000" stroke="none" 
	d="
M258.667542,167.390564 
	C257.441895,150.528595 265.055054,138.091476 276.879944,127.819237 
	C291.751007,114.900772 309.544098,108.107513 328.643036,104.658958 
	C359.388458,99.107491 389.440125,101.379562 417.812408,115.173859 
	C426.063110,119.185249 434.095642,124.558952 440.682678,130.910919 
	C462.326172,151.781967 461.010956,179.103745 438.196503,198.777039 
	C423.002625,211.878906 404.996063,218.877167 385.547058,222.350479 
	C354.790649,227.843155 324.811493,225.379318 296.326965,211.826050 
	C281.124847,204.592712 268.172150,194.603775 261.497559,178.387909 
	C260.124023,175.050903 259.629730,171.352036 258.667542,167.390564 
M363.177338,120.242531 
	C348.943024,119.739876 334.898346,121.067200 321.186279,125.005486 
	C307.577209,128.914185 294.822327,134.499146 285.400818,145.630737 
	C276.017365,156.717346 275.630249,170.295776 285.379181,181.007553 
	C290.417572,186.543564 296.692261,191.569305 303.370575,194.891098 
	C331.759583,209.011795 361.584534,210.019104 391.902130,202.383743 
	C405.966431,198.841721 418.974274,192.977875 428.776306,181.728622 
	C438.690033,170.351166 438.905792,156.168198 428.515228,145.221481 
	C423.573608,140.015350 417.457916,135.571533 411.155060,132.080597 
	C396.620819,124.030556 380.507446,121.381104 363.177338,120.242531 
z"/>
<path fill="#FCBB58" opacity="1.000000" stroke="none" 
	d="
M344.137085,352.116669 
	C333.305481,353.659515 333.703796,353.669556 333.968658,343.158112 
	C334.344696,328.236572 334.064148,313.298431 334.064148,297.395111 
	C315.202728,297.395111 296.761627,297.327118 278.321564,297.432739 
	C272.037659,297.468719 270.645721,299.097992 270.686096,305.729980 
	C270.822052,328.052429 270.904114,350.376526 271.293762,372.694977 
	C271.372650,377.212311 270.072388,379.106354 265.496216,378.954834 
	C260.674652,378.795166 255.837173,379.159515 251.012115,379.051147 
	C244.709061,378.909607 242.985199,377.143097 243.105682,370.867584 
	C243.505386,350.048859 244.003372,329.231995 244.459381,308.414307 
	C244.495834,306.749908 244.551743,305.083374 244.507690,303.420258 
	C244.400787,299.384186 242.574844,297.505524 238.259155,297.601074 
	C223.270767,297.932983 208.277023,298.046906 193.284698,298.167572 
	C185.114365,298.233337 184.287659,297.306732 184.704834,289.278839 
	C185.386246,276.166077 185.386292,276.151276 198.336014,276.187286 
	C242.315384,276.309540 286.294708,276.487518 330.274109,276.527557 
	C337.336334,276.533997 344.415649,276.143097 351.455536,275.557129 
	C355.887390,275.188263 355.463684,278.014832 355.425446,280.657928 
	C355.271271,291.317230 354.903839,301.974915 354.864655,312.634094 
	C354.823639,323.793976 355.035858,334.955353 355.200531,346.115143 
	C355.307007,353.331787 355.359863,353.316620 348.059387,352.283569 
	C346.910522,352.121002 345.733582,352.156403 344.137085,352.116669 
M334.867889,289.845093 
	C334.804169,289.004211 334.740448,288.163300 334.676697,287.322418 
	C334.591522,287.336945 334.506378,287.351501 334.421204,287.366058 
	C334.421204,289.404968 334.421204,291.443878 334.421204,293.482819 
	C334.568756,293.474121 334.716278,293.465454 334.863831,293.456757 
	C334.863831,292.470612 334.863831,291.484436 334.867889,289.845093 
z"/>
<path fill="#FDBB58" opacity="1.000000" stroke="none" 
	d="
M172.902283,276.328491 
	C180.236511,275.304047 181.110413,276.199402 180.959488,282.629089 
	C180.468323,303.553619 179.979797,324.480438 179.795227,345.409058 
	C179.707367,355.369446 180.290527,365.336517 180.610718,375.299225 
	C180.698456,378.029633 179.791336,379.977448 176.800079,379.997803 
	C169.527786,380.047272 162.242172,380.151489 154.994827,379.702362 
	C153.897873,379.634399 152.117050,376.718475 152.121796,375.124207 
	C152.144012,367.654297 152.930420,360.187683 152.983612,352.716644 
	C153.118576,333.760101 153.085983,314.801178 152.939529,295.844635 
	C152.902512,291.049927 152.150879,286.263184 151.793167,281.467896 
	C151.353760,275.577698 152.635254,274.405212 158.592499,275.030365 
	C163.203140,275.514191 167.818069,275.956970 172.902283,276.328491 
z"/>
<path fill="#F9B958" opacity="1.000000" stroke="none" 
	d="
M341.784973,363.674805 
	C347.443176,362.802612 352.494629,363.571045 355.214813,368.474884 
	C356.421814,370.650787 356.505280,374.499542 355.376526,376.709290 
	C352.796997,381.759308 347.623444,382.425842 342.412842,381.947357 
	C337.035065,381.453552 332.579956,377.622162 332.191895,373.319733 
	C331.822662,369.225922 334.949799,365.983002 341.784973,363.674805 
z"/>
<path fill="#2A2929" opacity="1.000000" stroke="none" 
	d="
M119.001198,203.071167 
	C105.852280,202.655258 93.200722,202.300751 80.554512,201.808807 
	C74.191231,201.561279 72.832771,200.151428 72.823006,194.080353 
	C72.790573,173.927872 72.790138,153.775284 72.824707,133.622818 
	C72.834343,128.004745 74.363037,126.074989 79.727684,126.168411 
	C109.179131,126.681267 138.658936,126.764366 168.063965,128.267395 
	C184.179245,129.091125 199.960388,133.289917 214.438568,140.950180 
	C218.800339,143.257965 223.101135,146.075424 226.631927,149.485580 
	C237.374390,159.861084 236.530457,175.493576 224.954712,184.953278 
	C214.841980,193.217377 202.596756,196.430603 190.159500,199.015305 
	C166.812927,203.867157 143.144882,203.303329 119.001198,203.071167 
z"/>
<path fill="#2A2A29" opacity="1.000000" stroke="none" 
	d="
M363.644348,120.258087 
	C380.507446,121.381104 396.620819,124.030556 411.155060,132.080597 
	C417.457916,135.571533 423.573608,140.015350 428.515228,145.221481 
	C438.905792,156.168198 438.690033,170.351166 428.776306,181.728622 
	C418.974274,192.977875 405.966431,198.841721 391.902130,202.383743 
	C361.584534,210.019104 331.759583,209.011795 303.370575,194.891098 
	C296.692261,191.569305 290.417572,186.543564 285.379181,181.007553 
	C275.630249,170.295776 276.017365,156.717346 285.400818,145.630737 
	C294.822327,134.499146 307.577209,128.914185 321.186279,125.005486 
	C334.898346,121.067200 348.943024,119.739876 363.644348,120.258087 
z"/>
<path fill="#BF914B" opacity="1.000000" stroke="none" 
	d="
M334.865845,290.171692 
	C334.863831,291.484436 334.863831,292.470612 334.863831,293.456757 
	C334.716278,293.465454 334.568756,293.474121 334.421204,293.482819 
	C334.421204,291.443878 334.421204,289.404968 334.421204,287.366058 
	C334.506378,287.351501 334.591522,287.336945 334.676697,287.322418 
	C334.740448,288.163300 334.804169,289.004211 334.865845,290.171692 
z"/>
</svg>